<?xml version="1.0" encoding="iso-8859-1"?>
<!-- Uploaded to: SVG Repo, www.svgrepo.com, Generator: SVG Repo Mixer Tools -->
<svg version="1.1" id="Layer_1" xmlns="http://www.w3.org/2000/svg" xmlns:xlink="http://www.w3.org/1999/xlink" 
	 viewBox="0 0 512 512" xml:space="preserve">
<path style="fill:#333E48;" d="M338.739,154.559h89.203c3.226,0,7.149,2.308,8.717,5.128l9.733,17.513H338.739V154.559z"/>
<path style="fill:#FF9E16;" d="M338.739,174.812h108.077c28.304,0,51.46,23.158,51.46,51.461v134.176H338.739V174.812z"/>
<path style="fill:#333E48;" d="M512,367.41c0,6.289-5.146,11.436-11.437,11.436h-49.556c-6.289,0-11.434-5.147-11.434-11.436
	v-15.056c0-6.29,5.146-11.437,11.434-11.437h49.556c6.291,0,11.437,5.147,11.437,11.437V367.41z"/>
<path style="fill:#0071CE;" d="M338.739,360.449H16.015V122.964c0-12.579,10.291-22.871,22.871-22.871h276.982
	c12.58,0,22.871,10.292,22.871,22.871L338.739,360.449L338.739,360.449z"/>
<circle style="fill:#333E48;" cx="121.346" cy="360.45" r="51.457"/>
<circle style="fill:#FFFFFF;" cx="121.346" cy="360.45" r="23.442"/>
<circle style="fill:#333E48;" cx="338.735" cy="360.45" r="51.457"/>
<g>
	<circle style="fill:#FFFFFF;" cx="338.746" cy="360.45" r="23.443"/>
	<path style="fill:#FFFFFF;" d="M462.816,243.902c0,6.29-5.145,11.436-11.434,11.436H377.05c-6.291,0-11.437-5.146-11.437-11.436
		v-31.923c0-6.291,5.146-11.436,11.437-11.436h74.332c6.29,0,11.434,5.146,11.434,11.436V243.902z"/>
	<path style="fill:#FFFFFF;" d="M472.736,340.916h-10.956c-3.144,0-5.716-2.573-5.716-5.718V316.9c0-3.145,2.572-5.719,5.716-5.719
		h10.956V340.916z"/>
</g>
<rect x="470.834" y="311.181" style="fill:#4BB6AA;" width="27.446" height="29.732"/>
<path style="fill:#FFFFFF;" d="M41.554,340.916H52.51c3.144,0,5.716-2.573,5.716-5.718V316.9c0-3.145-2.572-5.719-5.716-5.719
	H41.554V340.916z"/>
<rect x="16.015" y="311.181" style="fill:#4BB6AA;" width="27.446" height="29.732"/>
<path style="fill:#333E48;" d="M49.995,367.41c0,6.289-5.147,11.436-11.436,11.436H11.436C5.147,378.845,0,373.699,0,367.41v-15.056
	c0-6.29,5.147-11.437,11.436-11.437H38.56c6.289,0,11.436,5.147,11.436,11.437C49.995,352.353,49.995,367.41,49.995,367.41z"/>
<polygon style="fill:#0055B8;" points="338.739,150.625 16.015,239.231 16.015,289.581 338.739,200.975 "/>
</svg>