<?xml version="1.0" encoding="iso-8859-1"?>
<!-- Uploaded to: SVG Repo, www.svgrepo.com, Generator: SVG Repo Mixer Tools -->
<svg height="800px" width="800px" version="1.1" id="Layer_1" xmlns="http://www.w3.org/2000/svg" xmlns:xlink="http://www.w3.org/1999/xlink" 
	 viewBox="0 0 512 512" xml:space="preserve">
<circle style="fill:#C1D354;" cx="256" cy="256" r="256"/>
<path style="fill:#9DB138;" d="M389.711,178.24l-54.899,54.899l-76.001-75.999l-41.69-41.728l-0.218-0.218h-0.036l-94.574,63.053
	l39.168,45.161l-39.132,45.169l39.132,39.171l14.349,14.346l-14.354,14.354l165.501,165.507
	c94.016-27.077,165.804-106.527,181.701-204.769L389.711,178.24z"/>
<polygon style="fill:#B8D1E6;" points="161.454,223.419 256.003,286.454 256.003,160.374 "/>
<polygon style="fill:#CEE2F2;" points="350.566,223.419 256.003,286.454 256.003,160.374 "/>
<polygon style="fill:#0684BA;" points="161.454,223.419 161.454,333.752 256.003,396.8 256.003,286.454 "/>
<polygon style="fill:#0575A5;" points="350.566,223.419 350.566,333.752 297.554,369.121 256.003,396.8 256.003,286.454 "/>
<g>
	<polygon style="fill:#FFFFFF;" points="295.16,115.2 256.003,160.374 350.566,223.419 389.711,178.24 	"/>
	<polygon style="fill:#FFFFFF;" points="256.003,286.454 216.888,331.64 122.322,268.593 161.454,223.419 	"/>
	<polygon style="fill:#FFFFFF;" points="256.003,160.374 161.454,223.419 122.291,178.24 216.888,115.2 	"/>
	<polygon style="fill:#FFFFFF;" points="389.711,268.593 295.148,331.64 256.003,286.454 350.566,223.419 	"/>
</g>
</svg>